# xmcd
#
# Track frame offsets:
# 150
# 17246
# 33054
# 51454
# 68653
# 87417
# 102376
# 119486
# 136275
# 152623
# 165761
# 184743
# 202756
# 217317
# 233775
# 251834
# 265022
# 282730
# 299783
# 310903
#
# Disc length: 4326 seconds
#
#
# Revision: 0
# Processed by: cddbd v1.5.1PL2 Copyright (c) Steve Scherf et al.
# Submitted via: FreeRIP 2.945 
#
DISCID=2c10e414
DTITLE=Best Country Hits Of Today CD1
DYEAR=1900
DGENRE=
TTITLE0=Alan Jackson and Timmy Buffet - It's Five O' clock
TTITLE1=Kenny Chesney - No Shoes, No Shirt, No Troubles
TTITLE2=Trace Adkins - Then They Do
TTITLE3=Dierks Bentley - What Was I Thinkin'
TTITLE4=Tim McGraw - Real Good Man
TTITLE5=Randy Travis - Three Wooden Crosses
TTITLE6=Johnny Cash - Hurt
TTITLE7=The Nitty Gritty Dirt Band and Johnny Cash - Tears In The Holston River
TTITLE8=Wynonna - What The World Needs
TTITLE9=Tracy Bird feat. Blake Shelton, Montgomery Gentry and Andy - The Truth About Men
TTITLE10=Keith Urban - Who Wouldn't Wanna Be Me
TTITLE11=Martina Mc Bride - This One's For The Girl
TTITLE12=Brain McComas - 99,9 % Sure (I've Never Been Here Before)
TTITLE13=Brad Paisley - Celebrity
TTITLE14=Shania Twain - Thank You Baby
TTITLE15=Brooks and Dunn - My Heart Is Lost To You
TTITLE16=Lonestar - Not A Day Goes By
TTITLE17=Faith Hill - Cry
TTITLE18=Dixie Chicks - Some Days You Gotta Dance
TTITLE19=Toby Keith - I Wanna Talk About Me
EXTD=
EXTT0=
EXTT1=
EXTT2=
EXTT3=
EXTT4=
EXTT5=
EXTT6=
EXTT7=
EXTT8=
EXTT9=
EXTT10=
EXTT11=
EXTT12=
EXTT13=
EXTT14=
EXTT15=
EXTT16=
EXTT17=
EXTT18=
EXTT19=
PLAYORDER=
